<?xml version="1.0" encoding="UTF-8" standalone="no" ?>
<!DOCTYPE svg PUBLIC "-//W3C//DTD SVG 1.1//EN" "http://www.w3.org/Graphics/SVG/1.1/DTD/svg11.dtd">
<svg xmlns="http://www.w3.org/2000/svg" xmlns:xlink="http://www.w3.org/1999/xlink" version="1.1" width="48" height="48" viewBox="0 0 1080 1080" xml:space="preserve">
<desc>Created with Fabric.js 5.2.4</desc>
<defs>
</defs>
<g transform="matrix(1 0 0 1 540 540)" id="cae439fd-9c6d-4647-942b-baaa7a9dec30"  >
<rect style="stroke: none; stroke-width: 1; stroke-dasharray: none; stroke-linecap: butt; stroke-dashoffset: 0; stroke-linejoin: miter; stroke-miterlimit: 4; fill: rgb(255,255,255); fill-rule: nonzero; opacity: 1; visibility: hidden;" vector-effect="non-scaling-stroke"  x="-540" y="-540" rx="0" ry="0" width="1080" height="1080" />
</g>
<g transform="matrix(1 0 0 1 540 540)" id="3db15bf0-3203-41e5-8550-83c4018a0c69"  >
</g>
<g transform="matrix(1 0 0 1 540 540)"  >
<g style="" vector-effect="non-scaling-stroke"   >
		<g transform="matrix(1 0 0 1 0 0)"  >
<rect style="stroke: none; stroke-width: 1; stroke-dasharray: none; stroke-linecap: butt; stroke-dashoffset: 0; stroke-linejoin: miter; stroke-miterlimit: 4; fill: rgb(255,255,255); fill-rule: nonzero; opacity: 1; visibility: hidden;" vector-effect="non-scaling-stroke"  x="-540" y="-540" rx="0" ry="0" width="1080" height="1080" />
</g>
		<g transform="matrix(1 0 0 1 0 0)"  >
<path style="stroke: rgb(0,0,0); stroke-width: 0; stroke-dasharray: none; stroke-linecap: butt; stroke-dashoffset: 0; stroke-linejoin: miter; stroke-miterlimit: 4; fill: rgb(255,255,255); fill-rule: nonzero; opacity: 1;" vector-effect="non-scaling-stroke"  transform=" translate(-515.84, -511.34)" d="M 464.89 186.104 L 224.605 186.104 C 205.857 186.104 190.605 201.35600000000002 190.605 220.104 L 190.605 460.38800000000003 C 190.605 479.136 205.857 494.38800000000003 224.605 494.38800000000003 L 464.89 494.38800000000003 C 483.638 494.38800000000003 498.89 479.136 498.89 460.38800000000003 L 498.89 220.104 C 498.89 201.35700000000003 483.637 186.104 464.89 186.104 z M 442.89 438.389 L 246.605 438.389 L 246.605 242.104 L 442.89 242.104 L 442.89 438.389 z M 464.89 528.295 L 224.605 528.295 C 205.857 528.295 190.605 543.5469999999999 190.605 562.295 L 190.605 802.579 C 190.605 821.327 205.857 836.579 224.605 836.579 L 464.89 836.579 C 483.638 836.579 498.89 821.327 498.89 802.579 L 498.89 562.295 C 498.89 543.5469999999999 483.637 528.295 464.89 528.295 z M 442.89 780.579 L 246.605 780.579 L 246.605 584.295 L 442.89 584.295 L 442.89 780.579 z M 807.076 186.104 L 680.792 186.104 C 599.1850000000001 186.104 532.792 252.497 532.792 334.10400000000004 L 532.792 460.38800000000003 C 532.792 479.136 548.044 494.38800000000003 566.792 494.38800000000003 L 693.076 494.38800000000003 C 774.683 494.38800000000003 841.076 427.995 841.076 346.38800000000003 L 841.076 220.104 C 841.076 201.35700000000003 825.8240000000001 186.104 807.076 186.104 z M 785.076 346.389 C 785.076 397.118 743.8050000000001 438.389 693.076 438.389 L 588.792 438.389 L 588.792 334.104 C 588.792 283.375 630.063 242.10399999999998 680.792 242.10399999999998 L 785.076 242.10399999999998 L 785.076 346.389 z M 807.076 528.295 L 566.792 528.295 C 548.044 528.295 532.792 543.5469999999999 532.792 562.295 L 532.792 802.579 C 532.792 821.327 548.044 836.579 566.792 836.579 L 807.076 836.579 C 825.8240000000001 836.579 841.076 821.327 841.076 802.579 L 841.076 562.295 C 841.076 543.5469999999999 825.8240000000001 528.295 807.076 528.295 z M 785.076 780.579 L 588.792 780.579 L 588.792 584.295 L 785.076 584.295 L 785.076 780.579 z" stroke-linecap="round" />
</g>
</g>
</g>
</svg>